<svg xmlns="http://www.w3.org/2000/svg" width="20.16" height="32.719" viewBox="0 0 20.16 32.719">
  <defs>
    <style>
      .cls-1 {
        fill: #fd9a1e;
        fill-rule: evenodd;
      }
    </style>
  </defs>
  <path id="Forma_1" data-name="Forma 1" class="cls-1" d="M1589.94,29.762a0.512,0.512,0,0,0-.34-0.215h0a0.515,0.515,0,0,0-.59.4h0c0.01,0.013-1,5.375-8.26,8.55a10.517,10.517,0,0,0-2.62,1.63,8.194,8.194,0,0,0-2.73,4.551,7.935,7.935,0,0,0,2.72,7.769c-1.05,1.348-4.27,5.886-3.57,9.442a0.506,0.506,0,0,0,.99-0.206c-0.62-3.177,2.42-7.406,3.39-8.659a9.092,9.092,0,0,0,7.03.993,11.184,11.184,0,0,0,4.46-2.261,11.331,11.331,0,0,0,3.21-4.282C1595.44,43.217,1595.02,37.152,1589.94,29.762Zm-11.12,21.957h0a6.745,6.745,0,0,1-.76-0.723,6.88,6.88,0,0,1-1.2-1.84,7.13,7.13,0,0,1-.48-4.3,7.248,7.248,0,0,1,2.41-4,9.29,9.29,0,0,1,2.36-1.456,15.591,15.591,0,0,0,8.06-7.162,20.413,20.413,0,0,1-2.07,8.983l-1.19-2.764a0.5,0.5,0,0,0-.65-0.278,0.5,0.5,0,0,0-.3.636c0,0.012.01,0.024,0.01,0.036l1.54,3.554A32.543,32.543,0,0,1,1578.82,51.719Zm13.87-4.605v0a10.215,10.215,0,0,1-6.97,5.951,8.12,8.12,0,0,1-6.07-.767,39.147,39.147,0,0,0,3.86-3.821l4.49-.567a0.5,0.5,0,0,0,.43-0.564,0.5,0.5,0,0,0-.55-0.409l-3.45.435a29.455,29.455,0,0,0,3.12-4.718c0.01-.027.03-0.056,0.04-0.085a21.984,21.984,0,0,0,2.63-10.511C1594.01,38.335,1594.24,43.464,1592.69,47.113Z" transform="translate(-1574.47 -29.563)"/>
</svg>
