<svg xmlns="http://www.w3.org/2000/svg" width="39" height="39" viewBox="0 0 39 39">
  <defs>
    <style>
      .cls-1 {
        fill: #fff;
        fill-rule: evenodd;
      }
    </style>
  </defs>
  <path id="Forma_1" data-name="Forma 1" class="cls-1" d="M1823.78,711.41a12.3,12.3,0,0,1-9.62-9.414,1.283,1.283,0,0,0-1.26-1,1.264,1.264,0,0,0-1.25,1,12.33,12.33,0,0,1-9.63,9.414,1.247,1.247,0,0,0,0,2.453,12.33,12.33,0,0,1,9.63,9.414,1.282,1.282,0,0,0,2.5,0,12.33,12.33,0,0,1,9.63-9.414A1.247,1.247,0,0,0,1823.78,711.41Zm-2.12,20.705a5.808,5.808,0,0,1-4.53-4.436,1.289,1.289,0,0,0-2.51,0,5.806,5.806,0,0,1-4.54,4.436,1.247,1.247,0,0,0,0,2.453,5.806,5.806,0,0,1,4.54,4.436,1.289,1.289,0,0,0,2.51,0,5.808,5.808,0,0,1,4.53-4.436A1.247,1.247,0,0,0,1821.66,732.115Zm17.32-11.605a7.844,7.844,0,0,1-6.13-6,1.289,1.289,0,0,0-2.51,0,7.83,7.83,0,0,1-6.13,6,1.247,1.247,0,0,0,0,2.453,7.833,7.833,0,0,1,6.13,6,1.289,1.289,0,0,0,2.51,0,7.846,7.846,0,0,1,6.13-6A1.247,1.247,0,0,0,1838.98,720.51Z" transform="translate(-1801 -701)"/>
</svg>
