<svg xmlns="http://www.w3.org/2000/svg" width="30" height="30" viewBox="0 0 30 30">
  <defs>
    <style>
      .cls-1 {
        fill: #fff;
        fill-rule: evenodd;
      }
    </style>
  </defs>
  <path id="Forma_1" data-name="Forma 1" class="cls-1" d="M726.541,567.111a1.573,1.573,0,0,0,0,3.145A1.573,1.573,0,0,0,726.541,567.111Zm0.265-11.907c-2.757,0-4.023,1.633-4.023,2.736a1.17,1.17,0,0,0,1.225,1.164c1.1,0,.654-1.572,2.737-1.572,1.021,0,1.838.449,1.838,1.388,0,1.1-1.144,1.737-1.818,2.308a3.74,3.74,0,0,0-1.368,3.105c0,1.062.286,1.368,1.123,1.368,1,0,1.205-.449,1.205-0.837a2.566,2.566,0,0,1,1.144-2.553c0.551-.429,2.287-1.818,2.287-3.738S729.42,555.2,726.806,555.2ZM727,547a14.992,14.992,0,0,0-15,15v13.828A1.172,1.172,0,0,0,713.172,577H727A15,15,0,0,0,727,547Zm0,27.656H714.344V562A12.656,12.656,0,1,1,727,574.656Z" transform="translate(-712 -547)"/>
</svg>
