<svg xmlns="http://www.w3.org/2000/svg" width="35.88" height="27.84" viewBox="0 0 35.88 27.84">
  <defs>
    <style>
      .cls-1 {
        fill: #fff;
        fill-rule: evenodd;
      }
    </style>
  </defs>
  <path id="Forma_1" data-name="Forma 1" class="cls-1" d="M1262.41,4785.46a1.525,1.525,0,0,1-.41-0.97,1.549,1.549,0,0,1,.41-0.98l1.93-1.95a1.33,1.33,0,0,1,1.94,0l0.13,0.14,7.59,8.22a0.665,0.665,0,0,0,.97,0l18.48-19.36h0.14a1.319,1.319,0,0,1,1.93,0l1.93,1.95a1.359,1.359,0,0,1,0,1.95h0l-22.07,23.12a1.25,1.25,0,0,1-.97.42,1.229,1.229,0,0,1-.96-0.42l-10.76-11.7Z" transform="translate(-1262 -4770.16)"/>
</svg>
