<svg version="1.1" id="logo" xmlns="http://www.w3.org/2000/svg" xmlns:xlink="http://www.w3.org/1999/xlink" width="39px"
	height="39px" viewBox="0 0 200 203.1" style="enable-background:new 0 0 200 203.1;" xml:space="preserve" fill="#fff">
	<path
		d="M3,101.7c0,0-5.3-63.6,51.5-90.2C123.5-21,168.2,35.8,168.2,35.8S106.8-3.6,56.1,35.1c-37.9,28.8-31.8,66.7-31.8,66.7H3z" />
	<path
		d="M31.1,101.7c0,0-3-41.7,37.9-62.9c47-24.2,83.3,18.9,83.3,18.9s-41.7-25.8-78.8,0c-25,16.7-21.2,43.9-21.2,43.9H31.1z" />
	<path d="M62.1,101.7c0,0-2.3-24.2,22-36.4c25-12.9,47.7,11.4,47.7,11.4s-21.2-8.3-38.6,1.5c-15.2,8.3-14.4,24.2-14.4,24.2H62.1
	V101.7z" />
	<path d="M197,101.7c0,0,5.3,63.6-51.5,90.2c-68.9,32.6-113.6-24.2-113.6-24.2s61.4,39.4,112.1,0.8c38.6-28.8,31.8-66.7,31.8-66.7
	L197,101.7L197,101.7z" />
	<path
		d="M168.9,101.7c0,0,3,41.7-37.9,62.9c-47,24.2-83.3-18.9-83.3-18.9s41.7,25.8,78.8,0c25-16.7,21.2-43.9,21.2-43.9H168.9z" />
	<path d="M138.6,101.7c0,0,2.3,24.2-22,36.4c-25.8,12.9-48.5-11.4-48.5-11.4s21.2,8.3,38.6-1.5c15.2-8.3,14.4-24.2,14.4-24.2h17.4
	V101.7z" />
</svg>