<svg xmlns="http://www.w3.org/2000/svg" width="18.25" height="23" viewBox="0 0 18.25 23">
  <defs>
    <style>
      .cls-1 {
        fill: #c1a6d9;
        fill-rule: evenodd;
      }
    </style>
  </defs>
  <path id="Shape_1_copy" data-name="Shape 1 copy" class="cls-1" d="M1650.02,9490.39h0.14a4,4,0,0,0,3.13-1.46c1.71-2.07,1.43-5.61,1.39-5.95-0.11-2.54-1.23-3.75-2.15-4.31a4.637,4.637,0,0,0-2.39-.68h-0.07a4.729,4.729,0,0,0-2.39.65c-0.94.57-2.07,1.79-2.18,4.34-0.03.34-.32,3.88,1.39,5.95A3.987,3.987,0,0,0,1650.02,9490.39Zm-3.34-7.29c0-.01.01-0.03,0.01-0.04,0.14-3.41,2.4-3.78,3.37-3.78h0.06c1.19,0.03,3.23.55,3.37,3.78v0.04c0.01,0.03.32,3.27-1.09,4.98a2.849,2.849,0,0,1-2.29,1.02h-0.04a2.849,2.849,0,0,1-2.29-1.02C1646.38,9486.38,1646.68,9483.13,1646.68,9483.1Zm12.53,13.17v-0.14c-0.03-.95-0.08-3.15-2.01-3.85-0.02-.01-0.03-0.01-0.05-0.02a12.373,12.373,0,0,1-3.68-1.8,0.584,0.584,0,0,0-.84.16,0.667,0.667,0,0,0,.15.89,13.24,13.24,0,0,0,4.05,1.99c1.04,0.4,1.15,1.58,1.18,2.67a0.487,0.487,0,0,0,.01.12,10.008,10.008,0,0,1-.09,1.47,16.678,16.678,0,0,1-15.67-.01,8.732,8.732,0,0,1-.09-1.47c0-.04.01-0.07,0.01-0.12,0.03-1.08.14-2.27,1.18-2.67a13.334,13.334,0,0,0,4.05-1.98,0.669,0.669,0,0,0,.15-0.89,0.569,0.569,0,0,0-.84-0.16,12.491,12.491,0,0,1-3.68,1.8c-0.02,0-.03.01-0.05,0.01-1.92.71-1.98,2.91-2.01,3.86v0.13a7.765,7.765,0,0,0,.22,2.16,0.692,0.692,0,0,0,.23.3,17.692,17.692,0,0,0,17.34,0,0.625,0.625,0,0,0,.23-0.3A8.049,8.049,0,0,0,1659.21,9496.27Z" transform="translate(-1640.97 -9478)"/>
</svg>
