<svg xmlns="http://www.w3.org/2000/svg" width="24" height="25.969" viewBox="0 0 24 25.969">
  <defs>
    <style>
      .cls-1 {
        fill: #fd9a1e;
        fill-rule: evenodd;
      }
    </style>
  </defs>
  <path id="Forma_1_copy_3" data-name="Forma 1 copy 3" class="cls-1" d="M1712.79,40.747l-11.63-5.7a0.361,0.361,0,0,0-.32,0l-11.63,5.7a0.379,0.379,0,0,0-.21.343V54.924a0.378,0.378,0,0,0,.21.342l11.63,5.7a0.353,0.353,0,0,0,.32,0l11.63-5.7a0.378,0.378,0,0,0,.21-0.342V41.09A0.379,0.379,0,0,0,1712.79,40.747ZM1701,35.816l10.76,5.273-3.12,1.529a0.433,0.433,0,0,0-.06-0.041l-10.69-5.238Zm-3.96,1.955,10.75,5.265-2.2,1.079-10.74-5.264Zm11,5.988v3.986l-2.06,1.008V44.766Zm4.21,10.926L1701,60V47l2.97-1.246a0.379,0.379,0,0,0,.17-0.509,0.37,0.37,0,0,0-.5-0.177l-2.64,1.3-1.04-.51a0.371,0.371,0,0,0-.5.177,0.387,0.387,0,0,0,.17.508L1700,47V60l-10-5V42l8.03,3.754a0.367,0.367,0,0,0,.16.038,0.372,0.372,0,0,0,.34-0.215,0.388,0.388,0,0,0-.17-0.509l-8.12-3.978,3.72-1.825,11.27,5.52v4.574a0.385,0.385,0,0,0,.18.323,0.372,0.372,0,0,0,.2.058,0.343,0.343,0,0,0,.16-0.038l2.81-1.375a0.378,0.378,0,0,0,.21-0.342V43.391l3.46-1.694V54.684h0Zm-19.4-1.476-1.71-.837a0.371,0.371,0,0,0-.5.178,0.387,0.387,0,0,0,.17.508l1.71,0.836a0.368,0.368,0,0,0,.16.038,0.373,0.373,0,0,0,.34-0.215A0.387,0.387,0,0,0,1692.85,53.208Zm1.57-1.037-3.28-1.605a0.374,0.374,0,0,0-.5.178,0.382,0.382,0,0,0,.18.508l3.27,1.6a0.377,0.377,0,0,0,.16.038,0.373,0.373,0,0,0,.34-0.216A0.386,0.386,0,0,0,1694.42,52.171Z" transform="translate(-1689 -35.031)"/>
</svg>
