<svg xmlns="http://www.w3.org/2000/svg" width="19.97" height="23.82" viewBox="0 0 19.97 23.82">
  <defs>
    <style>
      .cls-1 {
        fill: #c1a6d9;
        fill-rule: evenodd;
      }
    </style>
  </defs>
  <path id="Shape_1_copy_2" data-name="Shape 1 copy 2" class="cls-1" d="M1657.26,9567.07a2.3,2.3,0,0,0-1.54-.99,2.262,2.262,0,0,0-1.73.57l-1.71,1.37c-0.11-.08-0.23-0.17-0.34-0.24-0.17-.12-0.32-0.22-0.45-0.33a17.037,17.037,0,0,1-3.51-4.24,10.044,10.044,0,0,1-1.05-2.29c0.44-.32.85-0.66,1.25-1,0.15-.11.3-0.25,0.45-0.37a2.339,2.339,0,0,0,.41-3.44l-1.15-1.53c-0.13-.17-0.26-0.35-0.39-0.53-0.25-.35-0.52-0.71-0.79-1.04a2.172,2.172,0,0,0-3.25-.42c0,0.01,0,.01-0.01.01l-1.84,1.5a3.723,3.723,0,0,0-1.32,2.19,9.254,9.254,0,0,0,.18,3.77,21.954,21.954,0,0,0,2.93,6.83,23.04,23.04,0,0,0,6.81,7.08,11.668,11.668,0,0,0,4.08,1.83c0.1,0.02.2,0.04,0.3,0.05a3.564,3.564,0,0,0,2.92-.88,0.053,0.053,0,0,1,.02-0.03,10.754,10.754,0,0,1,.95-0.79c0.23-.18.47-0.36,0.7-0.56a2.518,2.518,0,0,0,.93-1.64,2.463,2.463,0,0,0-.54-1.8Zm1.1,5.47h0c-0.21.18-.43,0.35-0.66,0.53a11.944,11.944,0,0,0-1.05.88,2.249,2.249,0,0,1-1.9.56l-0.22-.03a10.3,10.3,0,0,1-3.61-1.65,21.965,21.965,0,0,1-6.42-6.66,20.8,20.8,0,0,1-2.75-6.42,7.44,7.44,0,0,1-.17-3.19,2.346,2.346,0,0,1,.84-1.4l1.84-1.48a1.043,1.043,0,0,1,.77-0.27,1.006,1.006,0,0,1,.66.44l0.02,0.02c0.26,0.32.5,0.65,0.76,1,0.13,0.18.26,0.36,0.4,0.55l1.15,1.52a0.973,0.973,0,0,1-.19,1.54c-0.15.13-.3,0.26-0.46,0.38-0.46.38-.89,0.73-1.35,1.06-0.01.01-.02,0.01-0.03,0.02a1.042,1.042,0,0,0-.38,1.1,0.075,0.075,0,0,0,.01.05,11.054,11.054,0,0,0,1.24,2.83h0a17.961,17.961,0,0,0,3.8,4.57,6.7,6.7,0,0,0,.55.42c0.16,0.11.31,0.21,0.44,0.32,0.02,0.01.04,0.03,0.06,0.04a0.964,0.964,0,0,0,.46.19,0.983,0.983,0,0,0,.77-0.26l1.85-1.49a1.091,1.091,0,0,1,.77-0.29,1.01,1.01,0,0,1,.64.46c0.01,0,.01,0,0.01.01l2.33,3.08A1.029,1.029,0,0,1,1658.36,9572.54Z" transform="translate(-1640.16 -9552.06)"/>
</svg>
