<svg xmlns="http://www.w3.org/2000/svg" width="10.44" height="33.75" viewBox="0 0 10.44 33.75">
  <defs>
    <style>
      .cls-1 {
        fill: #fff;
        fill-rule: evenodd;
      }
    </style>
  </defs>
  <path id="Forma_1" data-name="Forma 1" class="cls-1" d="M1283.27,1820.31h-6.04a1.417,1.417,0,0,0-1.06.46,1.473,1.473,0,0,0-.45,1.08v5.37a1.506,1.506,0,0,0,.45,1.08,1.445,1.445,0,0,0,1.06.45h6.04a1.445,1.445,0,0,0,1.06-.45,1.506,1.506,0,0,0,.45-1.08v-5.37a1.473,1.473,0,0,0-.45-1.08A1.417,1.417,0,0,0,1283.27,1820.31Zm1.8-24.86a1.407,1.407,0,0,0-1.05-.45h-7.54a1.407,1.407,0,0,0-1.05.45,1.428,1.428,0,0,0-.41,1.08l0.66,18.41a1.5,1.5,0,0,0,.48,1.08,1.455,1.455,0,0,0,1.07.46h6.04a1.455,1.455,0,0,0,1.07-.46,1.5,1.5,0,0,0,.48-1.08l0.66-18.41A1.428,1.428,0,0,0,1285.07,1795.45Z" transform="translate(-1275.03 -1795)"/>
</svg>
