<svg class="svg-yes-v1" xmlns="http://www.w3.org/2000/svg" width="26" height="19" viewBox="0 0 32 25">
<style type="text/css">
	.svg-yes-v1 path{fill:#fff;}
</style>
<path d="M1267.37,1373.75a1.354,1.354,0,0,1-.37-0.88,1.331,1.331,0,0,1,.37-0.87l1.72-1.75a1.185,1.185,0,0,1,1.73,0l0.12,0.12,6.77,7.38a0.587,0.587,0,0,0,.86,0l16.49-17.38h0.12a1.185,1.185,0,0,1,1.73,0l1.72,1.75a1.225,1.225,0,0,1,0,1.75h0l-19.69,20.75a1.083,1.083,0,0,1-.86.38,1.069,1.069,0,0,1-.86-0.38l-9.6-10.5Z" transform="translate(-1267 -1360)"/>
</svg>