<svg xmlns="http://www.w3.org/2000/svg" width="28" height="26" viewBox="0 0 28 26">
  <defs>
    <style>
      .cls-1 {
        fill: #fd9a1e;
        fill-rule: evenodd;
      }
    </style>
  </defs>
  <path id="Forma_1" data-name="Forma 1" class="cls-1" d="M1456.13,63a0.679,0.679,0,0,1-.45-0.176L1449,58h-10c-2.68,0-5-1.676-5-4.469V42.068A4.974,4.974,0,0,1,1438.87,37h19.26c2.69,0,3.87,2.2,3.87,5V54c0,2.792-1.32,4-4,4h-1l-0.16,4.259a0.742,0.742,0,0,1-.41.671A0.62,0.62,0,0,1,1456.13,63ZM1439,38a4.4,4.4,0,0,0-4,4V54c0,1.976,2.1,3,4,3h10l7,5V57h2a2.7,2.7,0,0,0,3-3V42c0-1.98-1.1-4-3-4h-19Zm18,6h-18V43h18v1Zm0,4h-18V47h18v1Zm0,4h-18V51h18v1Z" transform="translate(-1434 -37)"/>
</svg>
