<svg xmlns="http://www.w3.org/2000/svg" width="25.313" height="31.687" viewBox="0 0 25.313 31.687">
  <defs>
    <style>
      .cls-1 {
        fill: #fff;
        fill-rule: evenodd;
      }
    </style>
  </defs>
  <path id="Forma_1" data-name="Forma 1" class="cls-1" d="M735.733,462.474a2.961,2.961,0,0,0-3.171-.632,2.56,2.56,0,0,0-.847-1.894,3.381,3.381,0,0,0-2.324-.843c-0.634,0-1.057.211-1.48,0.211a2.221,2.221,0,0,0-.423-1.053,2.833,2.833,0,0,0-4.227,0,2.229,2.229,0,0,0-.845,1.264c-0.424,0-.847-0.211-1.269-0.211a3.03,3.03,0,0,0-2.325,1.053,4.3,4.3,0,0,0-1.057,2.737v8a4.646,4.646,0,0,0-3.171-1.684,3.924,3.924,0,0,0-1.48.421,2.678,2.678,0,0,0-1.479,1.894C711,473.842,712.9,476.79,712.9,477c0.211,0.212,2.536,5.685,4.65,8,2.114,2.526,4.439,4,10.358,4,6.131,0,8.878-3.368,8.878-10.736V466.685C736.789,466.474,737,463.947,735.733,462.474Zm-11.627-.842c0-.632-0.211-2.105,1.057-2.105,1.057,0,1.057,1.052,1.057,2.105v8.421a1.057,1.057,0,0,0,2.114,0v-8a0.908,0.908,0,0,1,1.057-.842c1.267,0,1.057,1.895,1.057,1.895v6.947a1.057,1.057,0,0,0,2.114,0V465a1.1,1.1,0,0,1,1.057-1.264c1.057,0,1.057,2.106,1.057,2.106v12.421c0,7.156-2.748,8.631-6.765,8.631-5.073,0-6.975-1.052-8.666-3.368-1.9-2.106-4.439-7.58-4.439-7.789a5.152,5.152,0,0,1-1.269-3.369,1.12,1.12,0,0,1,.423-0.633,0.739,0.739,0,0,0,.422-0.209,2.8,2.8,0,0,1,1.9,1.473l1.268,1.895a1.021,1.021,0,0,0,1.269.421,0.85,0.85,0,0,0,1.057-.842V463.526c0-.842,0-2.106,1.057-2.106,0.845,0,1.056.633,1.056,1.686v6.947a1.057,1.057,0,0,0,2.114,0v-8.421Z" transform="translate(-711.5 -457.313)"/>
</svg>
