<?xml version="1.0" encoding="utf-8"?>
<!-- Generator: Adobe Illustrator 17.0.0, SVG Export Plug-In . SVG Version: 6.00 Build 0)  -->
<!DOCTYPE svg PUBLIC "-//W3C//DTD SVG 1.0//EN" "http://www.w3.org/TR/2001/REC-SVG-20010904/DTD/svg10.dtd">
<svg version="1.0" id="Layer_1" xmlns="http://www.w3.org/2000/svg" xmlns:xlink="http://www.w3.org/1999/xlink" x="0px" y="0px"
	 width="68px" height="55px" viewBox="0 0 333.604 273.73" enable-background="new 0 0 333.604 273.73"
	 xml:space="preserve">
<g>
	<g>
		<path fill="#FD581E" d="M172.681,135.183c0-2.281-1.848-4.129-4.128-4.129c-2.281,0-4.131,1.848-4.131,4.129
			c0,2.277,1.85,4.125,4.131,4.125C170.833,139.308,172.681,137.46,172.681,135.183z"/>
	</g>
</g>
<g>
	<g>
		<circle fill="#FD581E" cx="168.552" cy="135.181" r="5.345"/>
	</g>
</g>
<g>
	<g>
		<circle fill="#FD581E" cx="168.552" cy="135.182" r="6.02"/>
	</g>
</g>
<g>
	<g>
		<path fill="#FD581E" d="M173.185,135.184c0-2.559-2.072-4.635-4.634-4.635c-2.559,0-4.633,2.075-4.633,4.635
			c0,2.556,2.074,4.629,4.633,4.629C171.112,139.812,173.185,137.739,173.185,135.184z"/>
	</g>
</g>
<g>
	<g>
		<path fill="#FD581E" d="M174.572,135.183c0-3.326-2.694-6.02-6.018-6.02c-3.327,0-6.023,2.693-6.023,6.02
			c0,3.32,2.695,6.016,6.023,6.016C171.878,141.198,174.572,138.503,174.572,135.183z"/>
	</g>
</g>
<g>
	<g>
		<circle fill="#FD581E" cx="168.552" cy="135.182" r="2.61"/>
	</g>
</g>
<g>
	<g>
		<g>
			<path fill="#FD581E" d="M287.578,142.736c0-5.662-4.593-10.254-10.255-10.254c-5.665,0-10.258,4.592-10.258,10.254
				c0,5.659,4.593,10.252,10.258,10.252C282.985,152.988,287.578,148.395,287.578,142.736z"/>
		</g>
	</g>
	<g>
		<g>
			<path fill="#FD581E" d="M281.332,154.775c0-5.03-4.072-9.104-9.103-9.104c-5.027,0-9.1,4.073-9.1,9.104
				c0,5.018,4.072,9.094,9.1,9.094C277.26,163.869,281.332,159.793,281.332,154.775z"/>
		</g>
	</g>
	<g>
		<g>
			<path fill="#FD581E" d="M168.552,115.826c0-3.325-2.694-6.021-6.019-6.021c-3.327,0-6.022,2.695-6.022,6.021
				c0,3.321,2.695,6.017,6.022,6.017C165.857,121.843,168.552,119.147,168.552,115.826z"/>
		</g>
	</g>
	<g>
		<g>
			<path fill="#FD581E" d="M274.342,175.25c0-2.114-1.712-3.828-3.828-3.828c-2.113,0-3.827,1.714-3.827,3.828
				c0,2.11,1.714,3.825,3.827,3.825C272.63,179.075,274.342,177.36,274.342,175.25z"/>
		</g>
	</g>
	<g>
		<g>
			<path fill="#FD581E" d="M265.358,136.311c0-2.114-1.712-3.828-3.828-3.828c-2.113,0-3.827,1.714-3.827,3.828
				c0,2.11,1.714,3.825,3.827,3.825C263.646,140.136,265.358,138.421,265.358,136.311z"/>
		</g>
	</g>
	<g>
		<g>
			<path fill="#FD581E" d="M253.536,175.474c3.74,0,6.774-3.033,6.774-6.774c0-3.746-3.034-6.777-6.774-6.777
				c-3.741,0-6.774,3.031-6.774,6.777C246.762,172.441,249.795,175.474,253.536,175.474z"/>
		</g>
	</g>
	<g>
		<g>
			<path fill="#FD581E" d="M272.268,199.046c3.746,0,6.774-3.034,6.774-6.777c0-3.744-3.028-6.777-6.774-6.777
				c-3.735,0-6.769,3.033-6.769,6.777C265.498,196.012,268.532,199.046,272.268,199.046z"/>
		</g>
	</g>
	<g>
		<g>
			<path fill="#FD581E" d="M238.362,140.593c2.368,0,4.284-1.919,4.284-4.287c0-2.365-1.916-4.281-4.284-4.281
				c-2.362,0-4.278,1.916-4.278,4.281C234.084,138.674,236,140.593,238.362,140.593z"/>
		</g>
	</g>
	<g>
		<g>
			<path fill="#FD581E" d="M264.631,209.607c2.363,0,4.284-1.919,4.284-4.287c0-2.362-1.921-4.281-4.284-4.281
				c-2.357,0-4.278,1.919-4.278,4.281C260.353,207.688,262.273,209.607,264.631,209.607z"/>
		</g>
	</g>
	<g>
		<g>
			<path fill="#FD581E" d="M267.297,187.865c2.299,0,4.162-1.868,4.162-4.17c0-2.304-1.863-4.167-4.162-4.167
				c-2.304,0-4.166,1.863-4.166,4.167C263.131,185.997,264.993,187.865,267.297,187.865z"/>
		</g>
	</g>
	<g>
		<g>
			<path fill="#FD581E" d="M253.536,193.828c2.299,0,4.166-1.868,4.166-4.167c0-2.305-1.867-4.17-4.166-4.17
				c-2.3,0-4.167,1.865-4.167,4.17C249.369,191.96,251.236,193.828,253.536,193.828z"/>
		</g>
	</g>
	<g>
		<g>
			<circle fill="#FD581E" cx="162.803" cy="192.726" r="6.021"/>
		</g>
	</g>
	<g>
		<g>
			<path fill="#FD581E" d="M154.466,213.955c3.325,0,6.02-2.695,6.02-6.02c0-3.326-2.694-6.021-6.02-6.021
				c-3.321,0-6.017,2.695-6.017,6.021C148.449,211.26,151.145,213.955,154.466,213.955z"/>
		</g>
	</g>
	<g>
		<g>
			<path fill="#FD581E" d="M168.551,180.48c2.113,0,3.828-1.712,3.828-3.828c0-2.113-1.715-3.827-3.828-3.827
				c-2.111,0-3.826,1.714-3.826,3.827C164.725,178.768,166.439,180.48,168.551,180.48z"/>
		</g>
	</g>
	<g>
		<g>
			<path fill="#FD581E" d="M161.776,140.136c0,3.74,3.033,6.774,6.773,6.774c3.747,0,6.777-3.034,6.777-6.774
				c0-3.741-3.03-6.774-6.777-6.774C164.81,133.361,161.776,136.395,161.776,140.136z"/>
		</g>
	</g>
	<g>
		<g>
			<path fill="#FD581E" d="M149.25,172.464c0,3.746,3.033,6.774,6.777,6.774c3.743,0,6.776-3.028,6.776-6.774
				c0-3.735-3.033-6.77-6.776-6.77C152.283,165.694,149.25,168.729,149.25,172.464z"/>
		</g>
	</g>
	<g>
		<g>
			<path fill="#FD581E" d="M138.689,164.827c0,2.363,1.918,4.284,4.286,4.284c2.362,0,4.281-1.921,4.281-4.284
				c0-2.357-1.919-4.278-4.281-4.278C140.607,160.549,138.689,162.47,138.689,164.827z"/>
		</g>
	</g>
	<g>
		<g>
			<path fill="#FD581E" d="M160.43,167.493c0,2.299,1.869,4.162,4.17,4.162c2.305,0,4.167-1.863,4.167-4.162
				c0-2.304-1.862-4.166-4.167-4.166C162.299,163.327,160.43,165.189,160.43,167.493z"/>
		</g>
	</g>
	<g>
		<g>
			<path fill="#FD581E" d="M154.467,153.732c0,2.299,1.869,4.166,4.168,4.166c2.304,0,4.169-1.867,4.169-4.166
				c0-2.3-1.865-4.167-4.169-4.167C156.336,149.566,154.467,151.433,154.467,153.732z"/>
		</g>
	</g>
	<g>
		<g>
			<path fill="#FD581E" d="M227.801,195.512c-4.167-2.728-9.749-1.557-12.471,2.607c-2.73,4.162-1.562,9.747,2.605,12.469
				c4.161,2.725,9.744,1.554,12.466-2.607C233.128,203.816,231.96,198.234,227.801,195.512z"/>
		</g>
	</g>
	<g>
		<g>
			<path fill="#FD581E" d="M236.525,203.854c-5.481-3.59-12.846-2.054-16.433,3.435c-3.595,5.489-2.057,12.85,3.435,16.441
				c5.481,3.589,12.847,2.046,16.434-3.44C243.553,214.803,242.012,207.441,236.525,203.854z"/>
		</g>
	</g>
	<g>
		<g>
			<path fill="#FD581E" d="M240.307,201.993c-1.637-1.066-3.832-0.609-4.904,1.024c-1.069,1.64-0.609,3.832,1.027,4.901
				c1.631,1.069,3.829,0.612,4.896-1.024C242.398,205.259,241.941,203.066,240.307,201.993z"/>
		</g>
	</g>
	<g>
		<g>
			<path fill="#FD581E" d="M198.525,186.449c3.744,0,6.777-3.033,6.777-6.777c0-3.743-3.033-6.776-6.777-6.776
				c-3.738,0-6.772,3.033-6.772,6.776C191.753,183.416,194.786,186.449,198.525,186.449z"/>
		</g>
	</g>
	<g>
		<g>
			<circle fill="#FD581E" cx="190.886" cy="192.726" r="4.284"/>
		</g>
	</g>
	<g>
		<g>
			<path fill="#FD581E" d="M190.886,162.002c2.367,0,4.281-1.916,4.281-4.281c0-2.368-1.914-4.281-4.281-4.281
				c-2.363,0-4.279,1.913-4.279,4.281C186.607,160.086,188.523,162.002,190.886,162.002z"/>
		</g>
	</g>
	<g>
		<g>
			<path fill="#FD581E" d="M193.546,175.269c2.302,0,4.172-1.867,4.172-4.169c0-2.302-1.87-4.167-4.172-4.167
				c-2.297,0-4.164,1.865-4.164,4.167C189.382,173.401,191.249,175.269,193.546,175.269z"/>
		</g>
	</g>
	<g>
		<g>
			<g>
				<polygon fill="#FD581E" points="139.87,84.848 132.873,84.633 134.09,44.955 122.638,56.869 124.762,0 131.757,0.262 
					130.319,38.777 141.645,26.994 				"/>
			</g>
		</g>
		<g>
			<g>
				<polygon fill="#FD581E" points="166.336,96.217 160.905,91.801 183.824,63.616 169.578,60.84 199.578,24.614 204.969,29.079 
					182.489,56.225 196.618,58.978 				"/>
			</g>
		</g>
		<g>
			<g>
				<polygon fill="#FD581E" points="99.545,96.217 69.261,58.978 83.391,56.225 60.912,29.079 66.303,24.614 96.302,60.84 
					82.056,63.616 104.975,91.801 				"/>
			</g>
		</g>
	</g>
	<g>
		<g>
			<g>
				<g>
					<path fill="#DABEA2" d="M117.509,273.73c-5.832,0-11.171-4.604-12.158-10.689l-0.921-5.858
						c-1.032-6.396,3.025-12.747,9.061-14.203l25.062-7.371c2.385-0.822,4.715-2.75,7.146-5.947H33.92
						c-6.362,0-11.538-5.419-11.538-12.079v-11.074c0-6.661,5.176-12.081,11.538-12.081h20.902v7H33.92
						c-2.502,0-4.538,2.279-4.538,5.081v11.074c0,2.801,2.036,5.079,4.538,5.079l118.246-0.007l6.098-0.018l-3.061,5.274
						c-4.727,8.144-9.191,12.57-14.474,14.351l-0.13,0.041l-25.427,7.473c-2.534,0.583-4.288,3.471-3.831,6.306l0.921,5.855
						c0.453,2.796,2.981,4.982,5.562,4.78l59.541-7.055c3.74-0.353,9.465-2.749,12.423-5.161l30.075-29.309
						c4.1-3.414,11.396-6.088,16.611-6.088h97.129v7h-97.129c-3.564,0-9.145,2.04-12.033,4.386l-30.073,29.307
						c-4.016,3.347-11.159,6.345-16.263,6.825l-59.614,7.064C118.163,273.716,117.835,273.73,117.509,273.73z"/>
				</g>
			</g>
			<g>
				<g>
					<rect x="108.667" y="194.424" fill="#DABEA2" width="14.737" height="7"/>
				</g>
			</g>
			<g>
				<g>
					<rect x="108.667" y="166.176" fill="#DABEA2" width="14.394" height="7"/>
				</g>
			</g>
			<g>
				<g>
					<path fill="#DABEA2" d="M69.057,201.424H11.529C5.172,201.424,0,196.006,0,189.347v-11.081c0-6.666,5.172-12.09,11.529-12.09
						h57.527v7H11.529c-2.498,0-4.529,2.283-4.529,5.09v11.081c0,2.8,2.032,5.077,4.529,5.077h57.527V201.424z"/>
				</g>
			</g>
			<g>
				<g>
					<rect x="108.667" y="166.176" fill="#DABEA2" width="14.737" height="7"/>
				</g>
			</g>
			<g>
				<g>
					<path fill="#DABEA2" d="M69.057,173.176H33.92c-6.364,0-11.541-5.418-11.541-12.077v-11.093c0-6.66,5.177-12.078,11.541-12.078
						h89.484v7H33.92c-2.504,0-4.541,2.278-4.541,5.078v11.093c0,2.8,2.037,5.077,4.541,5.077h35.137V173.176z"/>
				</g>
			</g>
			<g>
				<g>
					<path fill="#DABEA2" d="M123.063,144.93H62.258c-6.362,0-11.537-5.42-11.537-12.081v-11.082c0-6.661,5.175-12.08,11.537-12.08
						h70.683v7H62.258c-2.502,0-4.537,2.279-4.537,5.08v11.082c0,2.802,2.035,5.081,4.537,5.081h60.805V144.93z"/>
				</g>
			</g>
			<g>
				<g>
					<path fill="#DABEA2" d="M333.604,133.997h-97.125c-4.994,0-12.407-1.864-16.877-4.243l-0.437-0.276l-12.82-9.483
						c-3.47-1.774-9.635-3.308-13.37-3.308h-65.725v-7h65.725c4.995,0,12.408,1.863,16.877,4.242l0.437,0.276l12.82,9.483
						c3.471,1.775,9.636,3.309,13.37,3.309h97.125V133.997z"/>
				</g>
			</g>
		</g>
		<g>
			<g>
				<path fill="#FD581E" d="M88.867,208.002c-8.405,0-16.229-2.618-22.029-7.371c-2.823-2.304-5.003-4.988-6.477-7.974l6.277-3.098
					c1.027,2.081,2.585,3.982,4.631,5.652c4.491,3.682,10.903,5.79,17.597,5.79c6.688,0,13.096-2.108,17.581-5.785
					c1.994-1.614,3.516-3.444,4.541-5.451l6.234,3.184c-1.473,2.884-3.611,5.473-6.354,7.694
					C105.087,205.384,97.267,208.002,88.867,208.002z"/>
			</g>
		</g>
		<g>
			<g>
				<path fill="#FD581E" d="M66.563,178.182l-6.297-3.059c1.49-3.066,3.703-5.811,6.578-8.159
					c5.794-4.748,13.618-7.366,22.023-7.366c8.4,0,16.219,2.618,22.019,7.371c2.748,2.238,4.884,4.836,6.343,7.714l-6.244,3.164
					c-1.013-1.999-2.536-3.835-4.528-5.457c-4.494-3.684-10.902-5.792-17.589-5.792c-6.694,0-13.106,2.108-17.592,5.785
					C69.188,174.086,67.605,176.035,66.563,178.182z"/>
			</g>
		</g>
	</g>
</g>
</svg>
