<?xml version="1.0" encoding="utf-8"?>
<!-- Generator: Adobe Illustrator 17.0.0, SVG Export Plug-In . SVG Version: 6.00 Build 0)  -->
<!DOCTYPE svg PUBLIC "-//W3C//DTD SVG 1.0//EN" "http://www.w3.org/TR/2001/REC-SVG-20010904/DTD/svg10.dtd">
<svg version="1.0" id="Layer_1" xmlns="http://www.w3.org/2000/svg" xmlns:xlink="http://www.w3.org/1999/xlink" x="0px" y="0px"
	 width="55px" height="68px" viewBox="0 0 219.367 270.017" enable-background="new 0 0 219.367 270.017"
	 xml:space="preserve">
<g>
	<g>
		<circle fill="#FD581E" cx="76.71" cy="117.482" r="3.082"/>
	</g>
</g>
<g>
	<g>
		<circle fill="#FD581E" cx="66.011" cy="129.142" r="3.083"/>
	</g>
</g>
<g>
	<g>
		<circle fill="#FD581E" cx="157.813" cy="109.99" r="3.082"/>
	</g>
</g>
<g>
	<g>
		<path fill="#FD581E" d="M160.777,99.735c0.467-1.633-0.479-3.341-2.117-3.809c-1.637-0.469-3.342,0.481-3.811,2.115
			c-0.467,1.637,0.48,3.344,2.117,3.811C158.605,102.321,160.311,101.373,160.777,99.735z"/>
	</g>
</g>
<g>
	<g>
		<circle fill="#FD581E" cx="66.433" cy="112.535" r="4.949"/>
	</g>
</g>
<g>
	<g>
		<circle fill="#FD581E" cx="149.517" cy="105.043" r="4.949"/>
	</g>
</g>
<g>
	<g>
		<path fill="#FD581E" d="M68.236,119.835c0.988-3.463-1.018-7.075-4.48-8.065c-3.463-0.99-7.076,1.016-8.066,4.479
			c-0.988,3.461,1.018,7.07,4.482,8.062C63.635,125.3,67.246,123.296,68.236,119.835z"/>
	</g>
</g>
<g>
	<g>
		<circle fill="#FD581E" cx="58.778" cy="124.095" r="3.077"/>
	</g>
</g>
<g>
	<g>
		<path fill="#FD581E" d="M82.707,102.812c0.469-1.634-0.478-3.336-2.111-3.804c-1.637-0.467-3.338,0.479-3.805,2.112
			c-0.467,1.632,0.479,3.334,2.113,3.802C80.539,105.39,82.242,104.444,82.707,102.812z"/>
	</g>
</g>
<g>
	<g>
		<circle fill="#FD581E" cx="139.618" cy="109.573" r="3.077"/>
	</g>
</g>
<g>
	<g>
		<circle fill="#FD581E" cx="67.955" cy="120.979" r="1.944"/>
	</g>
</g>
<g>
	<g>
		<path fill="#FD581E" d="M76.635,110.108c0.295-1.033-0.303-2.109-1.334-2.404c-1.033-0.296-2.109,0.303-2.404,1.336
			c-0.295,1.029,0.303,2.106,1.336,2.401C75.264,111.736,76.34,111.139,76.635,110.108z"/>
	</g>
</g>
<g>
	<g>
		<circle fill="#FD581E" cx="58.777" cy="133.361" r="1.944"/>
	</g>
</g>
<g>
	<g>
		<path fill="#FD581E" d="M62.25,139.962c0.355-1.237-0.361-2.525-1.598-2.879c-1.236-0.354-2.525,0.362-2.879,1.6
			c-0.354,1.233,0.363,2.522,1.6,2.875C60.609,141.911,61.898,141.196,62.25,139.962z"/>
	</g>
</g>
<g>
	<g>
		<circle fill="#FD581E" cx="131.941" cy="113.075" r="1.944"/>
	</g>
</g>
<g>
	<g>
		<circle fill="#FD581E" cx="146.51" cy="113.075" r="1.944"/>
	</g>
</g>
<g>
	<g>
		<path fill="#FD581E" d="M87.352,105.153c0.295-1.033-0.303-2.109-1.334-2.404c-1.033-0.296-2.109,0.303-2.404,1.336
			c-0.295,1.029,0.303,2.106,1.336,2.401C85.98,106.781,87.057,106.184,87.352,105.153z"/>
	</g>
</g>
<g>
	<g>
		<path fill="#FD581E" d="M117.688,114.937c0.297-1.033-0.303-2.109-1.334-2.404c-1.033-0.296-2.109,0.303-2.404,1.336
			c-0.295,1.029,0.303,2.106,1.336,2.401C116.316,116.564,117.395,115.967,117.688,114.937z"/>
	</g>
</g>
<g>
	<g>
		<circle fill="#FD581E" cx="145.3" cy="201.897" r="2.605"/>
	</g>
</g>
<g>
	<g>
		<circle fill="#FD581E" cx="167.05" cy="190.092" r="2.606"/>
	</g>
</g>
<g>
	<g>
		<path fill="#FD581E" d="M153.107,206.073c1.441-0.134,2.502-1.412,2.367-2.855c-0.135-1.443-1.412-2.504-2.855-2.369
			c-1.439,0.135-2.502,1.412-2.365,2.855C150.389,205.146,151.668,206.208,153.107,206.073z"/>
	</g>
</g>
<g>
	<g>
		<circle fill="#FD581E" cx="159.415" cy="194.944" r="1.603"/>
	</g>
</g>
<g>
	<g>
		<circle fill="#FD581E" cx="152.864" cy="211.778" r="1.603"/>
	</g>
</g>
<g>
	<g>
		<circle fill="#FD581E" cx="138.116" cy="210.175" r="1.603"/>
	</g>
</g>
<g>
	<g>
		<circle fill="#FD581E" cx="165.001" cy="198.228" r="1.107"/>
	</g>
</g>
<g>
	<g>
		<circle fill="#FD581E" cx="149.136" cy="207.937" r="1.106"/>
	</g>
</g>
<g>
	<g>
		<circle fill="#FD581E" cx="176.268" cy="193.341" r="1.603"/>
	</g>
</g>
<g>
	<g>
		<circle fill="#FD581E" cx="162.65" cy="185.179" r="1.603"/>
	</g>
</g>
<g>
	<g>
		<circle fill="#FD581E" cx="184.645" cy="200.255" r="1.603"/>
	</g>
</g>
<g>
	<g>
		<circle fill="#FD581E" cx="195.352" cy="191.739" r="1.603"/>
	</g>
</g>
<g>
	<g>
		<circle fill="#FD581E" cx="171.148" cy="188.698" r="3.519"/>
	</g>
</g>
<g>
	<g>
		<circle fill="#FD581E" cx="162.651" cy="213.694" r="3.52"/>
	</g>
</g>
<g>
	<g>
		<circle fill="#FD581E" cx="189.036" cy="193.342" r="3.52"/>
	</g>
</g>
<g>
	<g>
		<circle fill="#FD581E" cx="68.27" cy="197.031" r="2.606"/>
	</g>
</g>
<g>
	<g>
		<circle fill="#FD581E" cx="37.161" cy="186.573" r="2.605"/>
	</g>
</g>
<g>
	<g>
		<circle fill="#FD581E" cx="27.952" cy="194.426" r="2.606"/>
	</g>
</g>
<g>
	<g>
		<circle fill="#FD581E" cx="49.724" cy="192.198" r="2.605"/>
	</g>
</g>
<g>
	<g>
		<circle fill="#FD581E" cx="59.153" cy="186.573" r="2.605"/>
	</g>
</g>
<g>
	<g>
		<circle fill="#FD581E" cx="59.152" cy="193.511" r="1.603"/>
	</g>
</g>
<g>
	<g>
		<circle fill="#FD581E" cx="44.949" cy="186.573" r="1.603"/>
	</g>
</g>
<g>
	<g>
		<circle fill="#FD581E" cx="41.329" cy="193.208" r="2.196"/>
	</g>
</g>
<g>
	<g>
		<circle fill="#FD581E" cx="186.841" cy="184.97" r="2.196"/>
	</g>
</g>
<g>
	<g>
		<circle fill="#FD581E" cx="53.59" cy="183.366" r="1.603"/>
	</g>
</g>
<g>
	<g>
		<circle fill="#FD581E" cx="32.533" cy="198.304" r="1.603"/>
	</g>
</g>
<g>
	<g>
		<circle fill="#FD581E" cx="70.875" cy="204.782" r="1.603"/>
	</g>
</g>
<g>
	<g>
		<circle fill="#FD581E" cx="38.162" cy="217.213" r="1.603"/>
	</g>
</g>
<g>
	<g>
		<circle fill="#FD581E" cx="66.668" cy="201.822" r="1.603"/>
	</g>
</g>
<g>
	<g>
		<circle fill="#FD581E" cx="64.134" cy="198.304" r="3.52"/>
	</g>
</g>
<g>
	<g>
		<circle fill="#FD581E" cx="48.468" cy="187.485" r="3.52"/>
	</g>
</g>
<g>
	<g>
		<circle fill="#FD581E" cx="63.147" cy="209.903" r="3.52"/>
	</g>
</g>
<g>
	<g>
		<circle fill="#FD581E" cx="47.118" cy="216.153" r="3.52"/>
	</g>
</g>
<g>
	<g>
		<circle fill="#FD581E" cx="156.219" cy="199.292" r="5.491"/>
	</g>
</g>
<g>
	<g>
		<circle fill="#FD581E" cx="47.119" cy="210.176" r="5.492"/>
	</g>
</g>
<g>
	<g>
		<circle fill="#FD581E" cx="160.062" cy="203.18" r="2.59"/>
	</g>
</g>
<g>
	<g>
		<circle fill="#FD581E" cx="194.374" cy="198.513" r="2.59"/>
	</g>
</g>
<g>
	<g>
		<g>
			<polygon fill="#FD581E" points="115.274,68.398 110.276,68.258 111.182,35.856 102.755,45.463 104.306,0 109.303,0.17 
				108.23,31.641 116.568,22.136 			"/>
		</g>
	</g>
	<g>
		<g>
			<g>
				<polygon fill="#FD581E" points="141.625,77.295 137.609,74.314 154.872,51.053 144.392,48.815 166.074,20.126 170.063,23.141 
					153.116,45.565 163.522,47.787 				"/>
			</g>
		</g>
		<g>
			<g>
				<polygon fill="#FD581E" points="77.742,77.295 55.845,47.787 66.251,45.565 49.304,23.141 53.293,20.126 74.975,48.815 
					64.495,51.053 81.758,74.314 				"/>
			</g>
		</g>
	</g>
	<g>
		<g>
			<path fill="#DABEA2" d="M109.516,215.566c-5.868,0.001-11.113-1.021-15.524-2.4c-13.336-4.171-21.785-12.297-22.546-13.049
				c-4.939-4.655-7.917-8.524-8.437-9.217c-14.339-17.047-15.375-76.163-15.377-76.75C47.595,97.257,54.2,81.06,66.23,68.541
				l5.047,4.85C60.511,84.595,54.6,99.064,54.633,114.134c0.022,9.259,2.507,59.075,13.782,72.319l0.154,0.194
				c0.026,0.034,2.844,3.824,7.709,8.405l0.079,0.076c1.236,1.229,30.81,29.883,66.982-0.219c2.338-1.945,4.513-4.626,6.815-7.465
				l0.679-0.835c7.2-10.368,14.108-59.626,14.159-66.227c0.179-22.282-9.183-37.086-17.067-45.581l5.131-4.762
				c8.748,9.425,19.134,25.818,18.937,50.398c-0.045,5.883-6.707,57.901-15.511,70.308l-0.14,0.185l-0.751,0.924
				c-2.524,3.112-4.909,6.052-7.774,8.436C133.809,211.947,120.562,215.566,109.516,215.566z"/>
		</g>
	</g>
	<g>
		<g>
			<path fill="#DABEA2" d="M138.588,66.549c-6.306-4.546-13.377-7.836-20.45-9.513l1.615-6.811
				c7.957,1.887,15.886,5.567,22.929,10.646L138.588,66.549z"/>
		</g>
	</g>
	<g>
		<g>
			<path fill="#DABEA2" d="M79.87,65.921l-4.099-5.676c9.834-7.102,20.769-11.173,30.79-11.464l0.203,6.996
				C98.255,56.025,88.452,59.723,79.87,65.921z"/>
		</g>
	</g>
	<g>
		<g>
			<path fill="#DABEA2" d="M124.934,184.934c-15.488-11.441-29.812-0.533-30.416-0.064l-4.336-5.494
				c6.51-5.158,23.02-11.811,38.911-0.072L124.934,184.934z"/>
		</g>
	</g>
	<g>
		<g>
			<g>
				<path fill="#DABEA2" d="M87.104,134.924c-3.062,0-6.521-0.694-10.011-2.775l3.584-6.012c6.705,3.995,13.418,0.048,13.485,0.007
					l3.61,5.998C97.494,132.309,93.046,134.924,87.104,134.924z"/>
			</g>
		</g>
		<g>
			<g>
				<path fill="#DABEA2" d="M131.619,134.924c-3.062,0-6.521-0.694-10.011-2.775l3.584-6.012c6.705,3.995,13.418,0.048,13.485,0.007
					l3.61,5.998C142.01,132.309,137.562,134.924,131.619,134.924z"/>
			</g>
		</g>
	</g>
	<g>
		<g>
			<path fill="#DABEA2" d="M53.463,126.204l-4.568-5.304c0.17-0.146,17.115-14.868,24.921-31.162l1.593-3.325l3.237,1.763
				c1.626,0.886,3.337,1.87,5.148,2.913c17.547,10.099,44.064,25.36,75.844-4.085l4.758,5.135
				c-35.563,32.95-65.943,15.464-84.094,5.017c-0.64-0.368-1.266-0.728-1.879-1.079C69.535,112.262,54.156,125.607,53.463,126.204z"
				/>
		</g>
	</g>
	<g>
		<g>
			<rect x="138.711" y="200.256" fill="#DABEA2" width="7" height="0.385"/>
		</g>
	</g>
	<g>
		<g>
			<path fill="#DABEA2" d="M219.367,270.017h-7v-50.54c0-20.29-16.507-36.798-36.797-36.798h-17.756v-7h17.756
				c24.15,0,43.797,19.647,43.797,43.798V270.017z"/>
		</g>
	</g>
	<g>
		<g>
			<path fill="#DABEA2" d="M7,270.017H0v-50.54c0-24.15,19.647-43.798,43.797-43.798h16.748v7H43.797
				C23.507,182.679,7,199.187,7,219.477V270.017z"/>
		</g>
	</g>
</g>
</svg>
