<?xml version="1.0" encoding="utf-8"?>
<!-- Generator: Adobe Illustrator 17.0.0, SVG Export Plug-In . SVG Version: 6.00 Build 0)  -->
<!DOCTYPE svg PUBLIC "-//W3C//DTD SVG 1.0//EN" "http://www.w3.org/TR/2001/REC-SVG-20010904/DTD/svg10.dtd">
<svg version="1.0" id="Layer_1" xmlns="http://www.w3.org/2000/svg" xmlns:xlink="http://www.w3.org/1999/xlink" x="0px" y="0px"
	 width="39px" height="75px" viewBox="0 0 178.055 344.902" enable-background="new 0 0 178.055 344.902"
	 xml:space="preserve">
<g>
	<g>
		<g>
			<g>
				<path fill="#DABFA3" d="M89.082,91.256c-13.928,0-26.426-9.521-32.616-24.848l-0.255-0.631v-0.68l3.519-0.008l3.226-1.304
					c5.1,12.626,15.111,20.47,26.126,20.47c11.023,0,21.021-7.841,26.092-20.463l3.228,1.297l3.52-0.008v0.677l-0.252,0.644
					C115.511,81.732,103.024,91.256,89.082,91.256z"/>
			</g>
		</g>
		<g>
			<g>
				<path fill="#DABFA3" d="M136.684,131.12h-7V46.752c0-15.491-7.287-29.65-18.133-35.235c-6.721-3.22-13.132-3.932-18.605-4.343
					c-0.86-0.075-2.303-0.156-3.896-0.171c-1.527-0.015-3.023,0.043-3.903,0.153l-0.109,0.012
					c-9.113,0.852-15.989,2.846-21.022,6.093c-9.583,6.255-15.546,19.092-15.546,33.491v84.02h-7v-84.02
					c0-16.737,7.179-31.82,18.735-39.363c6.006-3.875,13.895-6.223,24.129-7.186c1.204-0.145,2.938-0.219,4.785-0.2
					c1.519,0.015,3.162,0.087,4.393,0.193c7.538,0.566,14.044,1.645,21.155,5.053c13.411,6.903,22.018,23.177,22.018,41.503V131.12z
					"/>
			</g>
		</g>
	</g>
	<g>
		<g>
			<path fill="#DABFA3" d="M56.166,129.556c-0.012-11.186,0-56.581,0.045-64.462l0.03-3.278c0.013-1.511,0.025-2.899,0.042-4.144
				c0.236-12.896,3.949-22.76,11.035-29.328c6.378-5.911,13.878-7.587,18.264-8.041v-16.8h7v23.858l-3.701-0.213
				c-0.083-0.007-9.615-0.391-16.872,6.392c-5.592,5.228-8.528,13.385-8.727,24.245c-0.017,1.218-0.029,2.594-0.042,4.091
				l-0.03,3.242c-0.044,7.885-0.057,53.249-0.045,64.43L56.166,129.556z"/>
		</g>
	</g>
	<g>
		<g>
			<path fill="#DABFA3" d="M121.979,129.558l-7-0.012c0.017-10.288,0.001-56.345-0.057-64.424c-0.014-2.801-0.027-5.279-0.056-7.352
				c-0.263-10.937-3.259-19.147-8.904-24.371c-7.218-6.679-16.585-6.256-16.676-6.251l-0.421-6.987
				c0.499-0.031,12.302-0.66,21.759,8.016c7.147,6.556,10.929,16.468,11.241,29.461c0.03,2.125,0.044,4.625,0.058,7.427
				C121.979,73.165,121.996,119.263,121.979,129.558z"/>
		</g>
	</g>
</g>
<g>
	<g>
		<path fill="#DABFA3" d="M160.612,305.248l-6.994-0.298c2.93-68.867-3.586-132.103-11.789-150.664
			c-0.173,3.147,0.005,7.537,1.068,12.489c5.428,21.172-2.805,30.971-10.674,35.463c-6.904,3.957-16.708,3.979-24.391,0.054
			c-8.346-4.266-13.574-12.598-14.722-23.46l6.961-0.735c1.142,10.805,6.583,15.731,10.946,17.962
			c6.505,3.324,13.75,2.384,17.729,0.104c8.502-4.854,10.905-13.916,7.353-27.71l-0.032-0.134
			c-1.442-6.683-2.737-21.44,2.472-24.404c1.676-0.954,3.719-0.677,5.203,0.703C157.383,157.31,163.477,237.921,160.612,305.248z"/>
	</g>
</g>
<g>
	<g>
		<path fill="#DABFA3" d="M150.354,341.02l-6.979-0.545c0.173-2.214,0.368-4.495,0.568-6.829
			c1.436-16.746,3.064-35.726-1.761-51.236c-1.642-5.28-6.068-13.769-10.348-21.978c-5.448-10.449-10.153-19.474-10.697-24.386
			c-1.067-9.66,1.573-23.6,4.584-37.225l6.835,1.511c-2.744,12.414-5.42,26.273-4.462,34.944c0.399,3.608,5.471,13.336,9.946,21.919
			c4.423,8.483,8.997,17.255,10.825,23.136c5.232,16.819,3.542,36.525,2.051,53.912C150.72,336.56,150.526,338.824,150.354,341.02z"
			/>
	</g>
</g>
<g>
	<g>
		<path fill="#DABFA3" d="M92.387,340.748h-7c0-0.212,0.01-0.41,0.022-0.618c0.684-17.316,4.214-32.552,10.494-45.312l6.28,3.091
			c-5.845,11.877-9.135,26.165-9.778,42.468l-0.009,0.164C92.393,340.609,92.387,340.677,92.387,340.748z"/>
	</g>
</g>
<g>
	<g>
		<circle fill="#DABFA3" cx="89.985" cy="256.693" r="2.876"/>
	</g>
</g>
<g>
	<g>
		<path fill="#DABFA3" d="M118.422,110.794c-0.59,0-5.9-0.141-10.466-5.021c-4.697-5.018-6.718-12.996-6.008-23.714l6.984,0.463
			c-0.568,8.584,0.861,14.971,4.134,18.468c2.511,2.683,5.329,2.804,5.356,2.804V110.794z"/>
	</g>
</g>
<g>
	<g>
		<path fill="#DABFA3" d="M156.874,344.902l-4.47-5.387c16.977-14.089,16.192-35.926,16.182-36.145l-0.019-0.427l0.083-0.418
			c5.743-28.714-0.671-104.555-0.737-105.317l-0.012-0.213c-1.21-48.967-12.524-69.417-21.802-77.95
			c-6.846-6.297-12.652-6.145-12.71-6.136l-0.412-6.988c0.358-0.016,8.746-0.411,17.861,7.972
			c10.268,9.444,22.773,31.477,24.058,82.823c0.376,4.415,6.446,77.122,0.695,106.789
			C175.656,307.079,175.293,329.617,156.874,344.902z"/>
	</g>
</g>
<g>
	<g>
		<path fill="#DABFA3" d="M17.442,305.248c-2.864-67.329,3.229-147.94,16.867-160.63c1.487-1.382,3.529-1.658,5.205-0.704
			c5.209,2.964,3.915,17.722,2.472,24.404l-0.032,0.134c-3.553,13.793-1.149,22.856,7.348,27.707
			c3.984,2.284,11.23,3.224,17.735-0.101c4.363-2.23,9.804-7.157,10.945-17.962l6.961,0.735c-1.147,10.862-6.375,19.193-14.72,23.46
			c-7.683,3.927-17.486,3.904-24.397-0.057c-7.864-4.489-16.099-14.289-10.668-35.46c1.063-4.954,1.241-9.344,1.068-12.491
			c-8.202,18.556-14.719,81.793-11.789,150.666L17.442,305.248z"/>
	</g>
</g>
<g>
	<g>
		<path fill="#DABFA3" d="M27.7,341.02c-0.172-2.196-0.366-4.461-0.564-6.776c-1.491-17.387-3.181-37.093,2.051-53.913
			c1.829-5.879,6.401-14.648,10.823-23.13c4.476-8.585,9.549-18.315,9.949-21.925c0.958-8.671-1.718-22.529-4.462-34.943
			l6.835-1.511c3.012,13.625,5.652,27.564,4.585,37.224c-0.544,4.914-5.25,13.94-10.699,24.392
			c-4.279,8.207-8.704,16.694-10.346,21.973c-4.825,15.511-3.197,34.49-1.761,51.236c0.2,2.334,0.396,4.615,0.568,6.829L27.7,341.02
			z"/>
	</g>
</g>
<g>
	<g>
		<path fill="#DABFA3" d="M92.668,340.748h-7c0-0.071-0.006-0.139-0.01-0.208l-0.006-0.107c-0.644-16.355-3.933-30.643-9.78-42.524
			l6.28-3.091c6.282,12.766,9.812,28.001,10.492,45.283C92.658,340.338,92.668,340.536,92.668,340.748z"/>
	</g>
</g>
<g>
	<g>
		<path fill="#DABFA3" d="M59.633,110.794v-3.5l-0.057-3.5c0.122-0.004,3-0.134,5.534-2.936c3.187-3.523,4.575-9.864,4.015-18.337
			l6.984-0.462c0.71,10.718-1.313,18.696-6.01,23.715C65.533,110.653,60.223,110.794,59.633,110.794z"/>
	</g>
</g>
<g>
	<g>
		<path fill="#DABFA3" d="M21.181,344.902C2.764,329.617,2.4,307.079,2.463,303.506c-5.75-29.667,0.32-102.374,0.697-106.789
			c1.283-51.345,13.787-73.378,24.055-82.822c9.115-8.384,17.505-7.993,17.864-7.973l-0.366,6.99
			c-0.245-0.008-6.149-0.117-13.082,6.436c-9.137,8.637-20.279,29.119-21.477,77.648l-0.012,0.213
			c-0.065,0.763-6.481,76.603-0.739,105.317l0.083,0.418l-0.019,0.427c-0.009,0.212-0.706,22.129,16.182,36.145L21.181,344.902z"/>
	</g>
</g>
<g>
	<g>
		<circle fill="#FD581E" cx="81.463" cy="214.221" r="3.373"/>
	</g>
</g>
<g>
	<g>
		<circle fill="#FD581E" cx="80.581" cy="238.581" r="3.082"/>
	</g>
</g>
<g>
	<g>
		<circle fill="#FD581E" cx="125.296" cy="249.354" r="3.373"/>
	</g>
</g>
<g>
	<g>
		<circle fill="#FD581E" cx="69.627" cy="226.439" r="4.949"/>
	</g>
</g>
<g>
	<g>
		<path fill="#FD581E" d="M73.367,232.962c0-3.603-2.921-6.523-6.523-6.523s-6.524,2.921-6.524,6.523c0,3.6,2.922,6.52,6.524,6.52
			S73.367,236.561,73.367,232.962z"/>
	</g>
</g>
<g>
	<g>
		<path fill="#FD581E" d="M116.569,239.702c0-4.448-3.606-8.056-8.056-8.056c-4.449,0-8.057,3.607-8.057,8.056
			c0,4.445,3.607,8.053,8.057,8.053C112.963,247.755,116.569,244.147,116.569,239.702z"/>
	</g>
</g>
<g>
	<g>
		<circle fill="#FD581E" cx="89.165" cy="225.893" r="2.59"/>
	</g>
</g>
<g>
	<g>
		<circle fill="#FD581E" cx="103.862" cy="212.45" r="2.605"/>
	</g>
</g>
<g>
	<g>
		<circle fill="#FD581E" cx="114.101" cy="233.807" r="3.799"/>
	</g>
</g>
<g>
	<g>
		<circle fill="#FD581E" cx="112.925" cy="205.247" r="2.605"/>
	</g>
</g>
<g>
	<g>
		<circle fill="#FD581E" cx="53.656" cy="247.189" r="2.605"/>
	</g>
</g>
<g>
	<g>
		<circle fill="#FD581E" cx="65.445" cy="239.657" r="3.077"/>
	</g>
</g>
<g>
	<g>
		<path fill="#FD581E" d="M96.553,246.384c0-2.101-1.7-3.8-3.799-3.8c-2.099,0-3.8,1.699-3.8,3.8c0,2.096,1.701,3.796,3.8,3.796
			C94.853,250.18,96.553,248.479,96.553,246.384z"/>
	</g>
</g>
<g>
	<g>
		<path fill="#FD581E" d="M111.044,247.299c0-3.175-2.57-5.745-5.744-5.745c-3.173,0-5.743,2.57-5.743,5.745
			c0,3.167,2.57,5.739,5.743,5.739C108.474,253.038,111.044,250.466,111.044,247.299z"/>
	</g>
</g>
<g>
	<g>
		<circle fill="#FD581E" cx="126.064" cy="253.105" r="2.605"/>
	</g>
</g>
<g>
	<g>
		<path fill="#FD581E" d="M120.369,243.5c0-2.099-1.7-3.8-3.8-3.8c-2.099,0-3.799,1.701-3.799,3.8c0,2.096,1.7,3.796,3.799,3.796
			C118.669,247.296,120.369,245.596,120.369,243.5z"/>
	</g>
</g>
<g>
	<g>
		<circle fill="#FD581E" cx="114.101" cy="257.684" r="3.799"/>
	</g>
</g>
<g>
	<g>
		<circle fill="#FD581E" cx="103.399" cy="202.184" r="2.605"/>
	</g>
</g>
<g>
	<g>
		<circle fill="#FD581E" cx="107.652" cy="204.892" r="1.647"/>
	</g>
</g>
<g>
	<g>
		<circle fill="#FD581E" cx="117.944" cy="208.184" r="1.647"/>
	</g>
</g>
<g>
	<g>
		<circle fill="#FD581E" cx="99.61" cy="202.642" r="1.646"/>
	</g>
</g>
<g>
	<g>
		<circle fill="#FD581E" cx="109.629" cy="207.16" r="1.603"/>
	</g>
</g>
<g>
	<g>
		<circle fill="#FD581E" cx="111.922" cy="212.45" r="1.603"/>
	</g>
</g>
<g>
	<g>
		<circle fill="#FD581E" cx="68.042" cy="116.455" r="2.605"/>
	</g>
</g>
<g>
	<g>
		<circle fill="#FD581E" cx="58.404" cy="149.454" r="2.605"/>
	</g>
</g>
<g>
	<g>
		<circle fill="#FD581E" cx="76.055" cy="124.811" r="2.605"/>
	</g>
</g>
<g>
	<g>
		<circle fill="#FD581E" cx="125.876" cy="137.601" r="2.605"/>
	</g>
</g>
<g>
	<g>
		<circle fill="#FD581E" cx="83.202" cy="135.512" r="2.605"/>
	</g>
</g>
<g>
	<g>
		<circle fill="#FD581E" cx="112.452" cy="140.207" r="2.605"/>
	</g>
</g>
<g>
	<g>
		<circle fill="#FD581E" cx="76.393" cy="118.956" r="2.171"/>
	</g>
</g>
<g>
	<g>
		<circle fill="#FD581E" cx="97.02" cy="92.777" r="1.647"/>
	</g>
</g>
<g>
	<g>
		<circle fill="#FD581E" cx="56.758" cy="141.854" r="1.647"/>
	</g>
</g>
<g>
	<g>
		<circle fill="#FD581E" cx="61.307" cy="149.454" r="1.647"/>
	</g>
</g>
<g>
	<g>
		<circle fill="#FD581E" cx="73.844" cy="121.706" r="1.603"/>
	</g>
</g>
<g>
	<g>
		<circle fill="#FD581E" cx="68.943" cy="124.608" r="1.744"/>
	</g>
</g>
<g>
	<g>
		<circle fill="#FD581E" cx="58.711" cy="137.747" r="1.943"/>
	</g>
</g>
<g>
	<g>
		<circle fill="#FD581E" cx="89.165" cy="140.987" r="1.603"/>
	</g>
</g>
<g>
	<g>
		<circle fill="#FD581E" cx="56.803" cy="152.362" r="1.603"/>
	</g>
</g>
<g>
	<g>
		<circle fill="#FD581E" cx="121.67" cy="143.457" r="1.603"/>
	</g>
</g>
<g>
	<g>
		<circle fill="#FD581E" cx="74.655" cy="201.653" r="2.605"/>
	</g>
</g>
<g>
	<g>
		<circle fill="#FD581E" cx="79.674" cy="204.59" r="1.647"/>
	</g>
</g>
<g>
	<g>
		<circle fill="#FD581E" cx="78.028" cy="196.855" r="1.647"/>
	</g>
</g>
<g>
	<g>
		<circle fill="#FD581E" cx="66.215" cy="204.59" r="1.646"/>
	</g>
</g>
<g>
	<g>
		<circle fill="#FD581E" cx="56.758" cy="224.538" r="1.647"/>
	</g>
</g>
<g>
	<g>
		<circle fill="#FD581E" cx="119.59" cy="260.104" r="1.647"/>
	</g>
</g>
<g>
	<g>
		<circle fill="#FD581E" cx="104.217" cy="260.22" r="2.416"/>
	</g>
</g>
<g>
	<g>
		<circle fill="#FD581E" cx="106.481" cy="225.848" r="2.401"/>
	</g>
</g>
<g>
	<g>
		<circle fill="#FD581E" cx="73.412" cy="234.139" r="1.944"/>
	</g>
</g>
<g>
	<g>
		<circle fill="#FD581E" cx="111.216" cy="110.312" r="3.353"/>
	</g>
</g>
<g>
	<g>
		<circle fill="#FD581E" cx="75.446" cy="99.812" r="3.353"/>
	</g>
</g>
<g>
	<g>
		<circle fill="#FD581E" cx="96.396" cy="109.604" r="4.167"/>
	</g>
</g>
<g>
	<g>
		<circle fill="#FD581E" cx="98.622" cy="115.143" r="5.492"/>
	</g>
</g>
<g>
	<g>
		<circle fill="#FD581E" cx="84.429" cy="98.647" r="4.516"/>
	</g>
</g>
<g>
	<g>
		<circle fill="#FD581E" cx="116.55" cy="138.814" r="3.52"/>
	</g>
</g>
<g>
	<g>
		<circle fill="#FD581E" cx="94.121" cy="132.908" r="5.492"/>
	</g>
</g>
<g>
	<g>
		<circle fill="#FD581E" cx="101.775" cy="119.961" r="2.59"/>
	</g>
</g>
<g>
	<g>
		<circle fill="#FD581E" cx="97.964" cy="136.795" r="2.589"/>
	</g>
</g>
<g>
	<g>
		<circle fill="#FD581E" cx="103.232" cy="111.934" r="1.637"/>
	</g>
</g>
<g>
	<g>
		<circle fill="#FD581E" cx="75.447" cy="93.156" r="1.637"/>
	</g>
</g>
<g>
	<g>
		<circle fill="#FD581E" cx="71.359" cy="203.566" r="1.603"/>
	</g>
</g>
</svg>
