<svg xmlns="http://www.w3.org/2000/svg" width="30" height="35" viewBox="0 0 30 35">
  <defs>
    <style>
      .cls-1 {
        fill: #fff;
        fill-rule: evenodd;
      }
    </style>
  </defs>
  <path id="Forma_1" data-name="Forma 1" class="cls-1" d="M1726.08,129.052a3.322,3.322,0,0,0-2.19-.823,3.392,3.392,0,0,0-3.04,4.809A16.345,16.345,0,0,1,1726.08,129.052ZM1733,159a15.163,15.163,0,0,0,2.54-30.082v-2.84h1.3a1.082,1.082,0,0,0,0-2.078h-7.68a1.082,1.082,0,0,0,0,2.078h1.3v2.839a14.661,14.661,0,0,0-3.6,1.111,15.014,15.014,0,0,0-5.3,4.023A15.182,15.182,0,0,0,1733,159Zm-8.84-24.006a12.648,12.648,0,0,1,2.87-2.183,12.3,12.3,0,0,1,5.97-1.544A12.525,12.525,0,1,1,1724.16,134.994Zm1.31,16.462a10.372,10.372,0,0,0,1.58,1.313,9.929,9.929,0,0,0,.87.539,10.531,10.531,0,0,0,5.08,1.3c0.23,0,.46-0.008.68-0.022a10.573,10.573,0,0,0,3.23-.724,10.955,10.955,0,0,0,1.17-.554c0.3-.165.59-0.345,0.88-0.538a10.93,10.93,0,0,0,1.57-1.313,10.826,10.826,0,0,0-1.57-16.529c-0.29-.193-0.58-0.373-0.88-0.538a10.947,10.947,0,0,0-1.17-.553,10.545,10.545,0,0,0-3.23-.725c-0.22-.014-0.45-0.021-0.68-0.021a10.541,10.541,0,0,0-5.08,1.3,10.175,10.175,0,0,0-.87.539,10.378,10.378,0,0,0-1.58,1.314A10.835,10.835,0,0,0,1725.47,151.456Zm7.53-16.168v8.061l-8.02,3.113C1723.56,140.874,1727.44,135.288,1733,135.288Z" transform="translate(-1718 -124)"/>
</svg>
